<svg xmlns="http://www.w3.org/2000/svg" xmlns:xlink="http://www.w3.org/1999/xlink" viewBox="0 0 100 193"><defs><style>.a{fill:#598464;}.b{clip-path:url(#a);}</style><clipPath id="a"><path class="a" d="M0,193V17.5l12.9-3.2C26.2,11.2,39.8,8.4,53.4,6S81.2,1.6,95.3,0a86.7,86.7,0,0,0,83.6,63.9A86.7,86.7,0,0,0,262.5,0c14.1,1.6,28.2,3.6,41.9,6s27.2,5.2,40.4,8.3L360,18.1V193Z"/></clipPath></defs><g class="b"><path class="a" d="M0,193V17.5l12.9-3.2C26.2,11.2,39.8,8.4,53.4,6S81.2,1.6,95.3,0a86.7,86.7,0,0,0,83.6,63.9A86.7,86.7,0,0,0,262.5,0c14.1,1.6,28.2,3.6,41.9,6s27.2,5.2,40.4,8.3L360,18.1V193Z"/></g></svg>